<svg width="685" height="684" viewBox="0 0 685 684" fill="none" xmlns="http://www.w3.org/2000/svg">
<path d="M591.56 268.533L657.514 202.58C675.087 185.069 684.967 161.277 684.967 136.471C684.967 111.659 675.087 87.872 657.514 70.356L613.65 26.492C595.827 9.50799 572.155 0.0333252 547.535 0.0333252C522.92 0.0333252 499.248 9.50733 481.425 26.492L415.472 92.4453L591.56 268.533Z" fill="#492E7B"/>
<path d="M371.6 136.307L29.3735 480.08H29.3787C11.2174 497.383 0.79074 521.268 0.441406 546.345V590.215C0.441406 614.964 10.2747 638.704 27.7801 656.209C45.2854 673.715 69.0254 683.548 93.7747 683.548H137.644C162.499 683.605 186.347 673.751 203.909 656.168L547.683 313.941L371.6 136.307Z" fill="#492E7B"/>
</svg>
