<svg width="31" height="31" viewBox="0 0 31 31" fill="none" xmlns="http://www.w3.org/2000/svg">
<path d="M1.25318 23.3357L0 30L6.66436 28.7468L24.6932 10.718L19.282 5.3068L1.25318 23.3357ZM5.94742 27.3884L1.83911 28.1609L2.61162 24.0526L19.282 7.38218L22.6178 10.718L5.94742 27.3884Z" fill="#4D2D80"/>
<path d="M24.5889 0L20.5281 4.06086L25.9391 9.47195L30 5.41109L24.5889 0ZM22.6034 4.06086L24.5889 2.07539L27.9246 5.41109L25.9391 7.39656L22.6034 4.06086Z" fill="#4D2D80"/>
<path d="M1.25318 23.3357L0 30L6.66436 28.7468L24.6932 10.718L19.282 5.3068L1.25318 23.3357ZM5.94742 27.3884L1.83911 28.1609L2.61162 24.0526L19.282 7.38218L22.6178 10.718L5.94742 27.3884Z" stroke="#4D2D80" stroke-width="0.1"/>
<path d="M24.5889 0L20.5281 4.06086L25.9391 9.47195L30 5.41109L24.5889 0ZM22.6034 4.06086L24.5889 2.07539L27.9246 5.41109L25.9391 7.39656L22.6034 4.06086Z" stroke="#4D2D80" stroke-width="0.1"/>
</svg>
